:SAMPLES-PER-SECOND 30
:FULLY-SPECIFIED
:DEGREES
73
root  -1.95276 40.9178 0.929409 175.83 -84.7309 -176.258
RightUpLeg  2.00991 -0.631469 -1.1525
RightLeg  -0.436821 -15.3388 -0.255796
RightFoot  -0.460442 -0.307903 3.20268
RightToes  -3.13006e-008 1.75238e-005 3.56266e-009
Spine  -5.444 0.025699 -4.68935
Spine1  14.111 -1.26743 5.25958
HEad  -26.7644 2.19087 1.20829
LeftShoulder1  2.59594 -4.45683 -26.4919
LeftArm  -24.6742 27.988 -58.4999
LeftForeArm  84.3525 -79.3214 -54.831
LeftHand  -0.408985 -6.71265 4.26637
RightShoulder  3.29744 5.82949 29.4125
RightArm  -0.281018 -31.459 41.9677
RightForeArm  134.309 71.0722 146.673
RightHand  0.036564 7.07915 -0.0158546
LeftUpLeg  2.20364 1.45265 2.20306
LeftLeg  0.052105 17.0848 -0.496584
LeftFoot  -1.19931 0.199956 -2.15451
LeftToes  4.76866e-008 1.46233e-008 1.30548e-009
74
root  -1.88309 40.9083 0.990843 177.11 -83.6279 -177.817
RightUpLeg  1.68497 -0.538874 -1.26606
RightLeg  0.322919 -14.2767 -0.613474
RightFoot  -0.58949 -0.317925 3.33256
RightToes  -3.13006e-008 1.75238e-005 3.56266e-009
Spine  -4.6212 0.287891 -4.47918
Spine1  13.4748 -0.944249 5.00229
HEad  -26.9286 2.27437 1.58405
LeftShoulder1  2.7518 -4.87886 -26.7249
LeftArm  -25.0892 28.2633 -57.9306
LeftForeArm  83.1722 -79.2508 -54.7016
LeftHand  -0.429093 -6.65825 4.47508
RightShoulder  3.2945 6.01559 28.6651
RightArm  0.0786658 -29.3108 40.4137
RightForeArm  133.363 71.6173 145.507
RightHand  0.0797575 7.00347 0.388525
LeftUpLeg  2.61373 1.50845 2.04772
LeftLeg  -0.123901 18.1398 -0.633282
LeftFoot  -1.18109 0.203917 -2.22875
LeftToes  4.76866e-008 1.46233e-008 1.30548e-009
75
root  -1.82145 40.898 1.06282 177.959 -82.8076 -178.844
RightUpLeg  1.33028 -0.510799 -1.41446
RightLeg  0.989528 -13.4152 -0.888579
RightFoot  -0.643998 -0.313501 3.25063
RightToes  -3.13006e-008 1.75238e-005 3.56266e-009
Spine  -4.3096 0.443451 -3.73464
Spine1  13.5314 -0.559741 4.02916
HEad  -27.1513 1.88063 2.1514
LeftShoulder1  2.74152 -4.96235 -26.2625
LeftArm  -24.5739 27.447 -57.3687
LeftForeArm  80.1721 -78.9176 -52.6787
LeftHand  -0.426217 -6.44039 4.52607
RightShoulder  3.20615 5.91138 28.0973
RightArm  0.691118 -26.7563 39.0875
RightForeArm  131.136 72.3512 143.662
RightHand  -0.0348791 6.97669 -0.678443
LeftUpLeg  2.7773 1.42746 1.8115
LeftLeg  -0.0859515 19.0564 -0.606695
LeftFoot  -1.2309 0.207475 -2.29235
LeftToes  4.76866e-008 1.46233e-008 1.30548e-009
76
root  -1.77203 40.8846 1.11827 178.607 -82.6866 -179.641
RightUpLeg  1.15902 -0.564688 -1.57098
RightLeg  1.40949 -13.2526 -1.05453
RightFoot  -0.753525 -0.326387 3.43709
RightToes  -3.13006e-008 1.75238e-005 3.56266e-009
Spine  -4.52173 0.274542 -3.62453
Spine1  14.0401 -0.682533 3.76623
HEad  -27.121 1.71589 2.41705
LeftShoulder1  2.81169 -5.2874 -25.8459
LeftArm  -23.8547 25.2434 -56.5232
LeftForeArm  74.4037 -78.1702 -48.5207
LeftHand  -0.476501 -5.90226 5.21734
RightShoulder  3.16075 5.96593 27.3973
RightArm  0.843543 -24.7058 38.1336
RightForeArm  128.92 73.0419 141.772
RightHand  -0.106229 7.21881 -1.3379
LeftUpLeg  2.74529 1.33478 1.60028
LeftLeg  0.149267 19.2948 -0.524412
LeftFoot  -1.33278 0.18938 -2.0204
LeftToes  4.76866e-008 1.46233e-008 1.30548e-009
77
root  -1.73746 40.8834 1.1441 178.503 -83.3619 -179.702
RightUpLeg  1.35157 -0.64227 -1.6199
RightLeg  1.47586 -13.8647 -1.11168
RightFoot  -0.759056 -0.331964 3.51004
RightToes  -3.13006e-008 1.75238e-005 3.56266e-009
Spine  -3.97069 -0.0437781 -3.9817
Spine1  13.1821 -1.11839 4.23878
HEad  -26.3996 1.33967 2.48676
LeftShoulder1  2.998 -5.91986 -25.673
LeftArm  -22.2986 22.6422 -55.2294
LeftForeArm  71.507 -77.773 -46.7487
LeftHand  -0.456345 -5.72009 5.09465
RightShoulder  3.12899 6.00711 26.9009
RightArm  0.701205 -24.4735 36.7166
RightForeArm  127.668 72.8692 141.962
RightHand  -0.135688 7.13992 -1.61433
LeftUpLeg  2.69043 1.34178 1.59004
LeftLeg  0.335647 18.6344 -0.529372
LeftFoot  -1.3382 0.186427 -1.98459
LeftToes  4.76866e-008 1.46233e-008 1.30548e-009
78
root  -1.73076 40.8918 1.14723 178.643 -84.3808 -179.959
RightUpLeg  1.77822 -0.719533 -1.6435
RightLeg  1.10072 -14.7859 -1.06569
RightFoot  -0.602509 -0.326538 3.41227
RightToes  -3.13006e-008 1.75238e-005 3.56266e-009
Spine  -4.11672 -0.41328 -4.51448
Spine1  13.2544 -1.62838 4.78366
HEad  -25.7381 0.65095 2.90306
LeftShoulder1  2.88574 -5.87193 -24.5943
LeftArm  -19.1912 17.9328 -54.9067
LeftForeArm  70.1262 -77.5001 -45.394
LeftHand  -0.562249 -5.25505 6.43451
RightShoulder  3.13328 6.10049 26.6142
RightArm  -0.232162 -24.9177 36.1252
RightForeArm  126.529 72.8298 141.868
RightHand  -0.262435 7.12091 -2.78256
LeftUpLeg  2.68235 1.31607 1.57836
LeftLeg  0.3197 17.669 -0.565873
LeftFoot  -1.21439 0.174856 -1.81496
LeftToes  4.76866e-008 1.46233e-008 1.30548e-009
79
root  -1.70393 40.9092 1.1382 179.574 -85.9475 179.228
RightUpLeg  2.06138 -0.980271 -1.78796
RightLeg  0.563291 -16.0598 -0.805613
RightFoot  -0.387097 -0.325445 3.38188
RightToes  -3.13006e-008 1.75238e-005 3.56266e-009
Spine  -4.08548 -0.843593 -5.14927
Spine1  12.622 -2.15566 5.35471
HEad  -25.2231 -0.158819 3.31984
LeftShoulder1  2.82009 -5.86964 -23.8652
LeftArm  -14.4337 11.654 -53.9766
LeftForeArm  71.7347 -77.7211 -46.2892
LeftHand  -0.56998 -5.24366 6.52818
RightShoulder  3.14397 6.16758 26.4907
RightArm  -1.31685 -26.3929 35.4775
RightForeArm  125.129 72.9849 141.277
RightHand  -0.364831 7.63177 -3.6137
LeftUpLeg  2.46242 1.0987 1.48245
LeftLeg  -0.00428423 16.3464 -0.611324
LeftFoot  -0.870093 0.173903 -1.81011
LeftToes  4.76866e-008 1.46233e-008 1.30548e-009
80
root  -1.70372 40.924 1.12622 178.772 -87.7218 -179.882
RightUpLeg  2.62434 -1.26965 -1.85255
RightLeg  -0.311569 -17.5166 -0.305918
RightFoot  -0.160333 -0.320752 3.29592
RightToes  -3.13006e-008 1.75238e-005 3.56266e-009
Spine  -3.97627 -1.19099 -5.88695
Spine1  12.1035 -2.69948 6.26257
HEad  -25.1167 -1.60338 3.58123
LeftShoulder1  2.8136 -5.86404 -23.811
LeftArm  -7.95357 3.67387 -52.6401
LeftForeArm  75.783 -78.5185 -50.9435
LeftHand  -0.621277 -5.16651 7.13622
RightShoulder  2.95558 5.7374 25.9484
RightArm  -2.80529 -28.8618 35.8655
RightForeArm  123.986 72.9815 141.095
RightHand  -0.413469 7.71343 -4.02281
LeftUpLeg  2.20701 0.973514 1.51265
LeftLeg  -0.131979 14.7351 -0.570201
LeftFoot  -0.635235 0.161806 -1.63119
LeftToes  4.76866e-008 1.46233e-008 1.30548e-009
81
root  -1.71625 40.9363 1.10302 179.397 -89.6117 179.748
RightUpLeg  2.99112 -1.52882 -1.9134
RightLeg  -1.08954 -19.1674 0.183958
RightFoot  -0.00225234 -0.323675 3.32856
RightToes  -3.13006e-008 1.75238e-005 3.56266e-009
Spine  -3.85031 -1.54475 -6.45696
Spine1  11.1256 -3.10923 6.79234
HEad  -24.8696 -3.25467 4.23416
LeftShoulder1  2.98706 -6.43406 -23.8377
LeftArm  -0.452692 -5.46401 -50.6826
LeftForeArm  82.1282 -79.4686 -58.8644
LeftHand  -0.765471 -5.09156 8.76014
RightShoulder  2.77315 5.25059 25.632
RightArm  -4.51995 -31.6952 36.7145
RightForeArm  121.296 73.416 139.574
RightHand  -0.410953 7.62632 -4.02438
LeftUpLeg  1.87024 0.8654 1.56075
LeftLeg  -0.453727 12.9584 -0.652523
LeftFoot  -0.310539 0.152075 -1.48773
LeftToes  4.76866e-008 1.46233e-008 1.30548e-009
82
root  -1.7115 40.9395 1.07559 2.97734 -88.6444 -3.56961
RightUpLeg  3.13671 -1.66708 -1.89766
RightLeg  -1.53366 -20.7921 0.552748
RightFoot  0.0532743 -0.323857 3.31918
RightToes  -3.13006e-008 1.75238e-005 3.56266e-009
Spine  -3.65956 -2.14358 -7.0809
Spine1  10.4414 -3.756 7.16374
HEad  -24.5397 -3.20675 4.42103
LeftShoulder1  3.00832 -6.6075 -23.5117
LeftArm  6.40057 -14.5265 -49.6783
LeftForeArm  99.2888 -80.6897 -75.7696
LeftHand  -0.92615 -5.61667 10.0742
RightShoulder  2.70801 5.11657 25.3588
RightArm  -5.24718 -34.273 37.4447
RightForeArm  119.589 73.9346 137.882
RightHand  -0.517668 7.36654 -5.05893
LeftUpLeg  1.30486 0.718324 1.60009
LeftLeg  -0.345012 11.3857 -0.533614
LeftFoot  -0.182916 0.155763 -1.55108
LeftToes  4.76866e-008 1.46233e-008 1.30548e-009
83
root  -1.70609 40.9437 1.05262 1.28606 -87.1512 -1.60223
RightUpLeg  3.07804 -1.81797 -1.91409
RightLeg  -1.63465 -22.0782 0.799375
RightFoot  0.0199349 -0.319295 3.23684
RightToes  -3.13006e-008 1.75238e-005 3.56266e-009
Spine  -2.98045 -2.86912 -7.9744
Spine1  9.11975 -4.58679 7.86708
HEad  -23.7481 -2.73649 4.12292
LeftShoulder1  2.90869 -6.61598 -22.4558
LeftArm  12.0684 -22.4114 -49.7116
LeftForeArm  124.665 -80.8415 -100.668
LeftHand  -1.00088 -6.14289 10.3814
RightShoulder  2.82505 5.51124 25.2743
RightArm  -5.60933 -36.5557 37.9074
RightForeArm  117.719 74.7698 135.063
RightHand  -0.562062 7.37087 -5.46147
LeftUpLeg  0.678798 0.676826 1.66668
LeftLeg  -0.0949749 9.88086 -0.518106
LeftFoot  -0.0582722 0.153457 -1.51893
LeftToes  4.76866e-008 1.46233e-008 1.30548e-009
84
root  -1.72145 40.9437 1.01755 1.49275 -85.8712 -1.63875
RightUpLeg  3.13667 -1.86032 -1.82308
RightLeg  -1.78584 -23.3614 0.966179
RightFoot  -0.0236898 -0.321581 3.26156
RightToes  -3.13006e-008 1.75238e-005 3.56266e-009
Spine  -2.34094 -3.48941 -9.24225
Spine1  8.04459 -5.48013 9.30677
HEad  -23.7369 -2.06376 3.23141
LeftShoulder1  2.9371 -7.03536 -21.5171
LeftArm  16.3248 -28.6711 -49.8334
LeftForeArm  149.302 -79.3155 -123.803
LeftHand  -1.06003 -6.07198 11.0352
RightShoulder  2.80281 5.52958 24.948
RightArm  -5.57464 -38.5743 38.4832
RightForeArm  117.598 75.4218 132.876
RightHand  -0.51572 7.44148 -5.01579
LeftUpLeg  0.283439 0.751715 1.81003
LeftLeg  0.0568895 8.50346 -0.582049
LeftFoot  -0.0436665 0.159196 -1.60902
LeftToes  4.76866e-008 1.46233e-008 1.30548e-009
85
root  -1.75529 40.9444 1.00068 1.85258 -84.8946 -1.89847
RightUpLeg  3.36129 -1.95815 -1.78773
RightLeg  -2.13654 -24.2355 1.26602
RightFoot  -0.0234904 -0.317625 3.19031
RightToes  -3.13006e-008 1.75238e-005 3.56266e-009
Spine  -1.80255 -4.00916 -10.293
Spine1  7.21542 -6.27722 10.6997
HEad  -23.7057 -1.56352 1.83865
LeftShoulder1  2.78981 -6.86203 -20.4975
LeftArm  20.0967 -33.723 -50.7628
LeftForeArm  163.169 -76.8939 -137.758
LeftHand  -1.08648 -7.61736 10.045
RightShoulder  2.72754 5.4529 24.3455
RightArm  -4.83567 -40.2238 39.0695
RightForeArm  116.958 75.5889 132.144
RightHand  -0.512895 7.27751 -5.04561
LeftUpLeg  0.146265 0.775661 1.9025
LeftLeg  -0.0302146 7.50336 -0.614891
LeftFoot  0.0207458 0.167621 -1.73816
LeftToes  4.76866e-008 1.46233e-008 1.30548e-009
86
root  -1.79835 40.9448 0.979201 1.24017 -84.4529 -1.20409
RightUpLeg  3.4142 -2.04871 -1.82902
RightLeg  -2.16537 -24.582 1.35852
RightFoot  -0.143093 -0.31622 3.15968
RightToes  -3.13006e-008 1.75238e-005 3.56266e-009
Spine  -1.66699 -4.39767 -10.747
Spine1  6.84109 -6.755 11.2203
HEad  -23.7246 -0.268014 0.733403
LeftShoulder1  2.63371 -6.61975 -19.5407
LeftArm  22.1679 -36.6485 -51.661
LeftForeArm  172.93 -74.3439 -146.335
LeftHand  -1.13438 -10.1192 8.84369
RightShoulder  2.67113 5.39362 23.8892
RightArm  -3.79443 -41.4422 39.7341
RightForeArm  117.212 75.6522 131.967
RightHand  -0.582121 7.31514 -5.66391
LeftUpLeg  0.0548268 0.912907 1.98051
LeftLeg  0.0114188 6.98951 -0.769463
LeftFoot  -0.042091 0.179198 -1.91414
LeftToes  4.76866e-008 1.46233e-008 1.30548e-009
87
root  -1.85172 40.9435 0.966122 0.479416 -84.3762 -0.509628
RightUpLeg  3.55728 -2.08386 -1.86366
RightLeg  -2.10141 -24.6088 1.31026
RightFoot  -0.27165 -0.316997 3.16405
RightToes  -3.13006e-008 1.75238e-005 3.56266e-009
Spine  -1.76595 -4.58491 -10.9062
Spine1  6.93167 -6.99057 11.4284
HEad  -24.1118 0.279409 -0.331409
LeftShoulder1  2.62067 -6.57815 -19.5143
LeftArm  22.3887 -37.7673 -51.6407
LeftForeArm  -179.447 -71.8894 -152.034
LeftHand  -0.787393 -11.7483 5.79935
RightShoulder  2.57636 5.19714 23.4572
RightArm  -2.88435 -42.0767 40.4981
RightForeArm  116.996 75.7332 131.626
RightHand  -0.517498 7.23811 -5.10523
LeftUpLeg  0.248159 0.874892 1.93842
LeftLeg  -0.0615881 6.86665 -0.748923
LeftFoot  -0.103947 0.184113 -1.9846
LeftToes  4.76866e-008 1.46233e-008 1.30548e-009
